<svg xmlns="http://www.w3.org/2000/svg" xmlns:xlink="http://www.w3.org/1999/xlink" width="500" zoomAndPan="magnify" viewBox="0 0 375 374.999991" height="500" preserveAspectRatio="xMidYMid meet" version="1.0"><defs><g/></defs><rect x="-37.5" width="450" fill="rgb(100%, 100%, 100%)" y="-37.499999" height="449.999989" fill-opacity="1"/><rect x="-37.5" width="450" fill="rgb(0%, 0%, 0%)" y="-37.499999" height="449.999989" fill-opacity="1"/><rect x="-37.5" width="450" fill="rgb(100%, 100%, 100%)" y="-37.499999" height="449.999989" fill-opacity="1"/><rect x="-37.5" width="450" fill="rgb(0%, 0%, 0%)" y="-37.499999" height="449.999989" fill-opacity="1"/><g fill="rgb(76.858521%, 66.268921%, 11.759949%)" fill-opacity="1"><g transform="translate(69.876794, 176.098965)"><g><path d="M 2.480469 0 L 62.910156 0 L 62.910156 -5.0625 L 7.492188 -5.0625 L 7.492188 -27.683594 L 62.910156 -27.683594 L 62.910156 -32.746094 L 2.480469 -32.746094 Z M 2.480469 0 "/></g></g></g><g fill="rgb(76.858521%, 66.268921%, 11.759949%)" fill-opacity="1"><g transform="translate(126.481285, 176.098965)"><g><path d="M 2.480469 0 L 62.910156 0 L 62.910156 -23.914062 L 7.492188 -23.914062 L 7.492188 -27.734375 L 62.910156 -27.734375 L 62.910156 -32.746094 L 2.480469 -32.746094 L 2.480469 -18.902344 L 57.902344 -18.902344 L 57.902344 -5.0625 L 2.480469 -5.0625 Z M 2.480469 0 "/></g></g></g><g fill="rgb(76.858521%, 66.268921%, 11.759949%)" fill-opacity="1"><g transform="translate(183.085776, 176.098965)"><g><path d="M 2.480469 0 L 7.542969 0 L 7.542969 -18.902344 L 57.902344 -18.902344 L 57.902344 0 L 62.910156 0 L 62.910156 -32.746094 L 2.480469 -32.746094 Z M 7.542969 -23.914062 L 7.542969 -27.683594 L 57.902344 -27.683594 L 57.902344 -23.914062 Z M 7.542969 -23.914062 "/></g></g></g><g fill="rgb(76.858521%, 66.268921%, 11.759949%)" fill-opacity="1"><g transform="translate(239.690267, 176.098965)"><g><path d="M 2.480469 0 L 7.542969 0 L 7.542969 -18.902344 L 30.164062 -18.902344 L 30.164062 0 L 62.910156 0 L 62.910156 -5.0625 L 35.226562 -5.0625 L 35.226562 -18.902344 L 62.960938 -18.902344 L 62.960938 -32.746094 L 2.480469 -32.746094 Z M 7.542969 -23.914062 L 7.542969 -27.683594 L 57.902344 -27.683594 L 57.902344 -23.914062 Z M 7.542969 -23.914062 "/></g></g></g><g fill="rgb(100%, 100%, 100%)" fill-opacity="1"><g transform="translate(91.326385, 205.114499)"><g><path d="M 5.4375 0.109375 C 4.519531 0.109375 3.695312 -0.09375 2.96875 -0.5 C 2.238281 -0.90625 1.664062 -1.457031 1.25 -2.15625 C 0.832031 -2.863281 0.625 -3.660156 0.625 -4.546875 C 0.625 -5.429688 0.832031 -6.226562 1.25 -6.9375 C 1.664062 -7.644531 2.238281 -8.195312 2.96875 -8.59375 C 3.707031 -9 4.535156 -9.203125 5.453125 -9.203125 C 6.160156 -9.203125 6.804688 -9.082031 7.390625 -8.84375 C 7.984375 -8.601562 8.488281 -8.25 8.90625 -7.78125 L 8.0625 -6.96875 C 7.375 -7.6875 6.519531 -8.046875 5.5 -8.046875 C 4.820312 -8.046875 4.207031 -7.894531 3.65625 -7.59375 C 3.113281 -7.289062 2.6875 -6.867188 2.375 -6.328125 C 2.070312 -5.796875 1.921875 -5.203125 1.921875 -4.546875 C 1.921875 -3.890625 2.070312 -3.296875 2.375 -2.765625 C 2.6875 -2.234375 3.113281 -1.8125 3.65625 -1.5 C 4.207031 -1.195312 4.820312 -1.046875 5.5 -1.046875 C 6.507812 -1.046875 7.363281 -1.410156 8.0625 -2.140625 L 8.90625 -1.328125 C 8.488281 -0.859375 7.984375 -0.5 7.390625 -0.25 C 6.796875 -0.0078125 6.144531 0.109375 5.4375 0.109375 Z M 5.4375 0.109375 "/></g></g></g><g fill="rgb(100%, 100%, 100%)" fill-opacity="1"><g transform="translate(105.077577, 205.114499)"><g><path d="M 5.46875 0.109375 C 4.550781 0.109375 3.722656 -0.09375 2.984375 -0.5 C 2.253906 -0.90625 1.675781 -1.460938 1.25 -2.171875 C 0.832031 -2.878906 0.625 -3.671875 0.625 -4.546875 C 0.625 -5.421875 0.832031 -6.210938 1.25 -6.921875 C 1.675781 -7.640625 2.253906 -8.195312 2.984375 -8.59375 C 3.722656 -9 4.550781 -9.203125 5.46875 -9.203125 C 6.382812 -9.203125 7.207031 -9 7.9375 -8.59375 C 8.675781 -8.195312 9.253906 -7.644531 9.671875 -6.9375 C 10.085938 -6.226562 10.296875 -5.429688 10.296875 -4.546875 C 10.296875 -3.660156 10.085938 -2.863281 9.671875 -2.15625 C 9.253906 -1.457031 8.675781 -0.90625 7.9375 -0.5 C 7.207031 -0.09375 6.382812 0.109375 5.46875 0.109375 Z M 5.46875 -1.046875 C 6.132812 -1.046875 6.734375 -1.195312 7.265625 -1.5 C 7.804688 -1.8125 8.226562 -2.234375 8.53125 -2.765625 C 8.84375 -3.296875 9 -3.890625 9 -4.546875 C 9 -5.203125 8.84375 -5.796875 8.53125 -6.328125 C 8.226562 -6.867188 7.804688 -7.289062 7.265625 -7.59375 C 6.734375 -7.894531 6.132812 -8.046875 5.46875 -8.046875 C 4.800781 -8.046875 4.195312 -7.894531 3.65625 -7.59375 C 3.113281 -7.289062 2.6875 -6.867188 2.375 -6.328125 C 2.070312 -5.796875 1.921875 -5.203125 1.921875 -4.546875 C 1.921875 -3.890625 2.070312 -3.296875 2.375 -2.765625 C 2.6875 -2.234375 3.113281 -1.8125 3.65625 -1.5 C 4.195312 -1.195312 4.800781 -1.046875 5.46875 -1.046875 Z M 5.46875 -1.046875 "/></g></g></g><g fill="rgb(100%, 100%, 100%)" fill-opacity="1"><g transform="translate(120.349298, 205.114499)"><g><path d="M 7.453125 0 L 5.484375 -2.796875 C 5.242188 -2.773438 5.050781 -2.765625 4.90625 -2.765625 L 2.671875 -2.765625 L 2.671875 0 L 1.359375 0 L 1.359375 -9.09375 L 4.90625 -9.09375 C 6.09375 -9.09375 7.019531 -8.8125 7.6875 -8.25 C 8.363281 -7.6875 8.703125 -6.910156 8.703125 -5.921875 C 8.703125 -5.222656 8.53125 -4.625 8.1875 -4.125 C 7.84375 -3.632812 7.347656 -3.28125 6.703125 -3.0625 L 8.859375 0 Z M 4.875 -3.875 C 5.695312 -3.875 6.320312 -4.050781 6.75 -4.40625 C 7.1875 -4.757812 7.40625 -5.265625 7.40625 -5.921875 C 7.40625 -6.585938 7.1875 -7.09375 6.75 -7.4375 C 6.320312 -7.789062 5.695312 -7.96875 4.875 -7.96875 L 2.671875 -7.96875 L 2.671875 -3.875 Z M 4.875 -3.875 "/></g></g></g><g fill="rgb(100%, 100%, 100%)" fill-opacity="1"><g transform="translate(134.152469, 205.114499)"><g><path d="M 4.90625 -9.09375 C 6.09375 -9.09375 7.019531 -8.8125 7.6875 -8.25 C 8.363281 -7.6875 8.703125 -6.910156 8.703125 -5.921875 C 8.703125 -4.941406 8.363281 -4.164062 7.6875 -3.59375 C 7.019531 -3.03125 6.09375 -2.75 4.90625 -2.75 L 2.671875 -2.75 L 2.671875 0 L 1.359375 0 L 1.359375 -9.09375 Z M 4.875 -3.890625 C 5.695312 -3.890625 6.320312 -4.0625 6.75 -4.40625 C 7.1875 -4.757812 7.40625 -5.265625 7.40625 -5.921875 C 7.40625 -6.585938 7.1875 -7.09375 6.75 -7.4375 C 6.320312 -7.789062 5.695312 -7.96875 4.875 -7.96875 L 2.671875 -7.96875 L 2.671875 -3.890625 Z M 4.875 -3.890625 "/></g></g></g><g fill="rgb(100%, 100%, 100%)" fill-opacity="1"><g transform="translate(147.890659, 205.114499)"><g><path d="M 5.46875 0.109375 C 4.550781 0.109375 3.722656 -0.09375 2.984375 -0.5 C 2.253906 -0.90625 1.675781 -1.460938 1.25 -2.171875 C 0.832031 -2.878906 0.625 -3.671875 0.625 -4.546875 C 0.625 -5.421875 0.832031 -6.210938 1.25 -6.921875 C 1.675781 -7.640625 2.253906 -8.195312 2.984375 -8.59375 C 3.722656 -9 4.550781 -9.203125 5.46875 -9.203125 C 6.382812 -9.203125 7.207031 -9 7.9375 -8.59375 C 8.675781 -8.195312 9.253906 -7.644531 9.671875 -6.9375 C 10.085938 -6.226562 10.296875 -5.429688 10.296875 -4.546875 C 10.296875 -3.660156 10.085938 -2.863281 9.671875 -2.15625 C 9.253906 -1.457031 8.675781 -0.90625 7.9375 -0.5 C 7.207031 -0.09375 6.382812 0.109375 5.46875 0.109375 Z M 5.46875 -1.046875 C 6.132812 -1.046875 6.734375 -1.195312 7.265625 -1.5 C 7.804688 -1.8125 8.226562 -2.234375 8.53125 -2.765625 C 8.84375 -3.296875 9 -3.890625 9 -4.546875 C 9 -5.203125 8.84375 -5.796875 8.53125 -6.328125 C 8.226562 -6.867188 7.804688 -7.289062 7.265625 -7.59375 C 6.734375 -7.894531 6.132812 -8.046875 5.46875 -8.046875 C 4.800781 -8.046875 4.195312 -7.894531 3.65625 -7.59375 C 3.113281 -7.289062 2.6875 -6.867188 2.375 -6.328125 C 2.070312 -5.796875 1.921875 -5.203125 1.921875 -4.546875 C 1.921875 -3.890625 2.070312 -3.296875 2.375 -2.765625 C 2.6875 -2.234375 3.113281 -1.8125 3.65625 -1.5 C 4.195312 -1.195312 4.800781 -1.046875 5.46875 -1.046875 Z M 5.46875 -1.046875 "/></g></g></g><g fill="rgb(100%, 100%, 100%)" fill-opacity="1"><g transform="translate(163.162381, 205.114499)"><g><path d="M 7.453125 0 L 5.484375 -2.796875 C 5.242188 -2.773438 5.050781 -2.765625 4.90625 -2.765625 L 2.671875 -2.765625 L 2.671875 0 L 1.359375 0 L 1.359375 -9.09375 L 4.90625 -9.09375 C 6.09375 -9.09375 7.019531 -8.8125 7.6875 -8.25 C 8.363281 -7.6875 8.703125 -6.910156 8.703125 -5.921875 C 8.703125 -5.222656 8.53125 -4.625 8.1875 -4.125 C 7.84375 -3.632812 7.347656 -3.28125 6.703125 -3.0625 L 8.859375 0 Z M 4.875 -3.875 C 5.695312 -3.875 6.320312 -4.050781 6.75 -4.40625 C 7.1875 -4.757812 7.40625 -5.265625 7.40625 -5.921875 C 7.40625 -6.585938 7.1875 -7.09375 6.75 -7.4375 C 6.320312 -7.789062 5.695312 -7.96875 4.875 -7.96875 L 2.671875 -7.96875 L 2.671875 -3.875 Z M 4.875 -3.875 "/></g></g></g><g fill="rgb(100%, 100%, 100%)" fill-opacity="1"><g transform="translate(176.965551, 205.114499)"><g><path d="M 7.15625 -2.28125 L 2.328125 -2.28125 L 1.328125 0 L -0.015625 0 L 4.109375 -9.09375 L 5.390625 -9.09375 L 9.53125 0 L 8.15625 0 Z M 6.703125 -3.3125 L 4.75 -7.78125 L 2.78125 -3.3125 Z M 6.703125 -3.3125 "/></g></g></g><g fill="rgb(100%, 100%, 100%)" fill-opacity="1"><g transform="translate(190.833695, 205.114499)"><g><path d="M 3.171875 -7.96875 L 0.046875 -7.96875 L 0.046875 -9.09375 L 7.578125 -9.09375 L 7.578125 -7.96875 L 4.453125 -7.96875 L 4.453125 0 L 3.171875 0 Z M 3.171875 -7.96875 "/></g></g></g><g fill="rgb(100%, 100%, 100%)" fill-opacity="1"><g transform="translate(202.817421, 205.114499)"><g><path d="M 1.359375 -9.09375 L 2.671875 -9.09375 L 2.671875 0 L 1.359375 0 Z M 1.359375 -9.09375 "/></g></g></g><g fill="rgb(100%, 100%, 100%)" fill-opacity="1"><g transform="translate(211.201248, 205.114499)"><g><path d="M 9.265625 -9.09375 L 5.28125 0 L 3.984375 0 L -0.015625 -9.09375 L 1.390625 -9.09375 L 4.671875 -1.625 L 7.96875 -9.09375 Z M 9.265625 -9.09375 "/></g></g></g><g fill="rgb(100%, 100%, 100%)" fill-opacity="1"><g transform="translate(224.809485, 205.114499)"><g><path d="M 5.46875 0.109375 C 4.550781 0.109375 3.722656 -0.09375 2.984375 -0.5 C 2.253906 -0.90625 1.675781 -1.460938 1.25 -2.171875 C 0.832031 -2.878906 0.625 -3.671875 0.625 -4.546875 C 0.625 -5.421875 0.832031 -6.210938 1.25 -6.921875 C 1.675781 -7.640625 2.253906 -8.195312 2.984375 -8.59375 C 3.722656 -9 4.550781 -9.203125 5.46875 -9.203125 C 6.382812 -9.203125 7.207031 -9 7.9375 -8.59375 C 8.675781 -8.195312 9.253906 -7.644531 9.671875 -6.9375 C 10.085938 -6.226562 10.296875 -5.429688 10.296875 -4.546875 C 10.296875 -3.660156 10.085938 -2.863281 9.671875 -2.15625 C 9.253906 -1.457031 8.675781 -0.90625 7.9375 -0.5 C 7.207031 -0.09375 6.382812 0.109375 5.46875 0.109375 Z M 5.46875 -1.046875 C 6.132812 -1.046875 6.734375 -1.195312 7.265625 -1.5 C 7.804688 -1.8125 8.226562 -2.234375 8.53125 -2.765625 C 8.84375 -3.296875 9 -3.890625 9 -4.546875 C 9 -5.203125 8.84375 -5.796875 8.53125 -6.328125 C 8.226562 -6.867188 7.804688 -7.289062 7.265625 -7.59375 C 6.734375 -7.894531 6.132812 -8.046875 5.46875 -8.046875 C 4.800781 -8.046875 4.195312 -7.894531 3.65625 -7.59375 C 3.113281 -7.289062 2.6875 -6.867188 2.375 -6.328125 C 2.070312 -5.796875 1.921875 -5.203125 1.921875 -4.546875 C 1.921875 -3.890625 2.070312 -3.296875 2.375 -2.765625 C 2.6875 -2.234375 3.113281 -1.8125 3.65625 -1.5 C 4.195312 -1.195312 4.800781 -1.046875 5.46875 -1.046875 Z M 5.46875 -1.046875 "/></g></g></g><g fill="rgb(100%, 100%, 100%)" fill-opacity="1"><g transform="translate(240.081213, 205.114499)"><g/></g></g><g fill="rgb(100%, 100%, 100%)" fill-opacity="1"><g transform="translate(247.932203, 205.114499)"><g><path d="M 4.015625 0.109375 C 3.328125 0.109375 2.664062 0.00390625 2.03125 -0.203125 C 1.394531 -0.421875 0.894531 -0.703125 0.53125 -1.046875 L 1.015625 -2.046875 C 1.359375 -1.742188 1.800781 -1.492188 2.34375 -1.296875 C 2.882812 -1.097656 3.441406 -1 4.015625 -1 C 4.765625 -1 5.328125 -1.125 5.703125 -1.375 C 6.078125 -1.632812 6.265625 -1.976562 6.265625 -2.40625 C 6.265625 -2.71875 6.160156 -2.96875 5.953125 -3.15625 C 5.753906 -3.351562 5.503906 -3.503906 5.203125 -3.609375 C 4.910156 -3.710938 4.488281 -3.832031 3.9375 -3.96875 C 3.25 -4.132812 2.695312 -4.296875 2.28125 -4.453125 C 1.863281 -4.617188 1.503906 -4.875 1.203125 -5.21875 C 0.898438 -5.5625 0.75 -6.023438 0.75 -6.609375 C 0.75 -7.085938 0.875 -7.519531 1.125 -7.90625 C 1.382812 -8.300781 1.773438 -8.613281 2.296875 -8.84375 C 2.816406 -9.082031 3.460938 -9.203125 4.234375 -9.203125 C 4.773438 -9.203125 5.304688 -9.128906 5.828125 -8.984375 C 6.347656 -8.847656 6.789062 -8.648438 7.15625 -8.390625 L 6.734375 -7.359375 C 6.347656 -7.597656 5.9375 -7.78125 5.5 -7.90625 C 5.070312 -8.03125 4.648438 -8.09375 4.234375 -8.09375 C 3.503906 -8.09375 2.953125 -7.957031 2.578125 -7.6875 C 2.210938 -7.425781 2.03125 -7.082031 2.03125 -6.65625 C 2.03125 -6.34375 2.132812 -6.085938 2.34375 -5.890625 C 2.550781 -5.703125 2.804688 -5.550781 3.109375 -5.4375 C 3.421875 -5.332031 3.84375 -5.21875 4.375 -5.09375 C 5.050781 -4.925781 5.597656 -4.757812 6.015625 -4.59375 C 6.429688 -4.4375 6.789062 -4.1875 7.09375 -3.84375 C 7.394531 -3.507812 7.546875 -3.054688 7.546875 -2.484375 C 7.546875 -2.003906 7.414062 -1.566406 7.15625 -1.171875 C 6.894531 -0.773438 6.5 -0.460938 5.96875 -0.234375 C 5.4375 -0.00390625 4.785156 0.109375 4.015625 0.109375 Z M 4.015625 0.109375 "/></g></g></g><g fill="rgb(100%, 100%, 100%)" fill-opacity="1"><g transform="translate(260.357785, 205.114499)"><g><path d="M 7.15625 -2.28125 L 2.328125 -2.28125 L 1.328125 0 L -0.015625 0 L 4.109375 -9.09375 L 5.390625 -9.09375 L 9.53125 0 L 8.15625 0 Z M 6.703125 -3.3125 L 4.75 -7.78125 L 2.78125 -3.3125 Z M 6.703125 -3.3125 "/></g></g></g><g fill="rgb(100%, 100%, 100%)" fill-opacity="1"><g transform="translate(274.22594, 205.114499)"><g><path d="M 7.453125 0 L 5.484375 -2.796875 C 5.242188 -2.773438 5.050781 -2.765625 4.90625 -2.765625 L 2.671875 -2.765625 L 2.671875 0 L 1.359375 0 L 1.359375 -9.09375 L 4.90625 -9.09375 C 6.09375 -9.09375 7.019531 -8.8125 7.6875 -8.25 C 8.363281 -7.6875 8.703125 -6.910156 8.703125 -5.921875 C 8.703125 -5.222656 8.53125 -4.625 8.1875 -4.125 C 7.84375 -3.632812 7.347656 -3.28125 6.703125 -3.0625 L 8.859375 0 Z M 4.875 -3.875 C 5.695312 -3.875 6.320312 -4.050781 6.75 -4.40625 C 7.1875 -4.757812 7.40625 -5.265625 7.40625 -5.921875 C 7.40625 -6.585938 7.1875 -7.09375 6.75 -7.4375 C 6.320312 -7.789062 5.695312 -7.96875 4.875 -7.96875 L 2.671875 -7.96875 L 2.671875 -3.875 Z M 4.875 -3.875 "/></g></g></g><path stroke-linecap="butt" transform="matrix(0.748052, 0.000000000000000321, -0.000000000000000322, 0.75, 22.457935, 200.614499)" fill="none" stroke-linejoin="miter" d="M -0.00120764 -0.00162344 L 66.18634 -0.00162344 " stroke="rgb(100%, 100%, 100%)" stroke-width="1" stroke-opacity="1" stroke-miterlimit="4"/><path stroke-linecap="butt" transform="matrix(0.748052, 0.000000000000000321, -0.000000000000000322, 0.75, 302.901899, 200.239499)" fill="none" stroke-linejoin="miter" d="M 0.000594532 -0.00162347 L 66.188142 -0.00162347 " stroke="rgb(100%, 100%, 100%)" stroke-width="1" stroke-opacity="1" stroke-miterlimit="4"/></svg>