<svg xmlns="http://www.w3.org/2000/svg" xmlns:xlink="http://www.w3.org/1999/xlink" width="500" zoomAndPan="magnify" viewBox="0 0 375 374.999991" height="500" preserveAspectRatio="xMidYMid meet" version="1.0"><defs><g/></defs><rect x="-37.5" width="450" fill="rgb(100%, 100%, 100%)" y="-37.499999" height="449.999989" fill-opacity="1"/><rect x="-37.5" width="450" fill="rgb(100%, 100%, 100%)" y="-37.499999" height="449.999989" fill-opacity="1"/><rect x="-37.5" width="450" fill="rgb(100%, 100%, 100%)" y="-37.499999" height="449.999989" fill-opacity="1"/><g fill="rgb(76.858521%, 66.268921%, 11.759949%)" fill-opacity="1"><g transform="translate(69.876794, 176.098994)"><g><path d="M 2.480469 0 L 62.910156 0 L 62.910156 -5.0625 L 7.492188 -5.0625 L 7.492188 -27.683594 L 62.910156 -27.683594 L 62.910156 -32.746094 L 2.480469 -32.746094 Z M 2.480469 0 "/></g></g></g><g fill="rgb(76.858521%, 66.268921%, 11.759949%)" fill-opacity="1"><g transform="translate(126.481285, 176.098994)"><g><path d="M 2.480469 0 L 62.910156 0 L 62.910156 -23.914062 L 7.492188 -23.914062 L 7.492188 -27.734375 L 62.910156 -27.734375 L 62.910156 -32.746094 L 2.480469 -32.746094 L 2.480469 -18.902344 L 57.902344 -18.902344 L 57.902344 -5.0625 L 2.480469 -5.0625 Z M 2.480469 0 "/></g></g></g><g fill="rgb(76.858521%, 66.268921%, 11.759949%)" fill-opacity="1"><g transform="translate(183.085776, 176.098994)"><g><path d="M 2.480469 0 L 7.542969 0 L 7.542969 -18.902344 L 57.902344 -18.902344 L 57.902344 0 L 62.910156 0 L 62.910156 -32.746094 L 2.480469 -32.746094 Z M 7.542969 -23.914062 L 7.542969 -27.683594 L 57.902344 -27.683594 L 57.902344 -23.914062 Z M 7.542969 -23.914062 "/></g></g></g><g fill="rgb(76.858521%, 66.268921%, 11.759949%)" fill-opacity="1"><g transform="translate(239.690267, 176.098994)"><g><path d="M 2.480469 0 L 7.542969 0 L 7.542969 -18.902344 L 30.164062 -18.902344 L 30.164062 0 L 62.910156 0 L 62.910156 -5.0625 L 35.226562 -5.0625 L 35.226562 -18.902344 L 62.960938 -18.902344 L 62.960938 -32.746094 L 2.480469 -32.746094 Z M 7.542969 -23.914062 L 7.542969 -27.683594 L 57.902344 -27.683594 L 57.902344 -23.914062 Z M 7.542969 -23.914062 "/></g></g></g><g fill="rgb(0%, 0%, 0%)" fill-opacity="1"><g transform="translate(92.509979, 205.114556)"><g><path d="M 5.4375 0.0625 C 4.539062 0.0625 3.734375 -0.132812 3.015625 -0.53125 C 2.304688 -0.925781 1.742188 -1.472656 1.328125 -2.171875 C 0.921875 -2.878906 0.71875 -3.671875 0.71875 -4.546875 C 0.71875 -5.421875 0.921875 -6.207031 1.328125 -6.90625 C 1.742188 -7.613281 2.304688 -8.164062 3.015625 -8.5625 C 3.734375 -8.96875 4.539062 -9.171875 5.4375 -9.171875 C 6.09375 -9.171875 6.695312 -9.0625 7.25 -8.84375 C 7.8125 -8.632812 8.285156 -8.320312 8.671875 -7.90625 L 8.25 -7.46875 C 7.519531 -8.1875 6.585938 -8.546875 5.453125 -8.546875 C 4.691406 -8.546875 4 -8.375 3.375 -8.03125 C 2.75 -7.6875 2.257812 -7.207031 1.90625 -6.59375 C 1.550781 -5.988281 1.375 -5.304688 1.375 -4.546875 C 1.375 -3.796875 1.550781 -3.113281 1.90625 -2.5 C 2.257812 -1.894531 2.75 -1.414062 3.375 -1.0625 C 4 -0.71875 4.691406 -0.546875 5.453125 -0.546875 C 6.585938 -0.546875 7.519531 -0.910156 8.25 -1.640625 L 8.671875 -1.203125 C 8.285156 -0.785156 7.8125 -0.46875 7.25 -0.25 C 6.6875 -0.0390625 6.082031 0.0625 5.4375 0.0625 Z M 5.4375 0.0625 "/></g></g></g><g fill="rgb(0%, 0%, 0%)" fill-opacity="1"><g transform="translate(106.170189, 205.114556)"><g><path d="M 5.453125 0.0625 C 4.554688 0.0625 3.75 -0.132812 3.03125 -0.53125 C 2.3125 -0.9375 1.742188 -1.488281 1.328125 -2.1875 C 0.921875 -2.894531 0.71875 -3.679688 0.71875 -4.546875 C 0.71875 -5.410156 0.921875 -6.191406 1.328125 -6.890625 C 1.742188 -7.597656 2.3125 -8.15625 3.03125 -8.5625 C 3.75 -8.96875 4.554688 -9.171875 5.453125 -9.171875 C 6.335938 -9.171875 7.140625 -8.96875 7.859375 -8.5625 C 8.578125 -8.164062 9.140625 -7.613281 9.546875 -6.90625 C 9.960938 -6.207031 10.171875 -5.421875 10.171875 -4.546875 C 10.171875 -3.671875 9.960938 -2.878906 9.546875 -2.171875 C 9.140625 -1.472656 8.578125 -0.925781 7.859375 -0.53125 C 7.140625 -0.132812 6.335938 0.0625 5.453125 0.0625 Z M 5.453125 -0.546875 C 6.210938 -0.546875 6.898438 -0.71875 7.515625 -1.0625 C 8.128906 -1.414062 8.613281 -1.894531 8.96875 -2.5 C 9.320312 -3.113281 9.5 -3.796875 9.5 -4.546875 C 9.5 -5.304688 9.320312 -5.988281 8.96875 -6.59375 C 8.613281 -7.207031 8.128906 -7.6875 7.515625 -8.03125 C 6.898438 -8.375 6.210938 -8.546875 5.453125 -8.546875 C 4.679688 -8.546875 3.984375 -8.375 3.359375 -8.03125 C 2.742188 -7.6875 2.257812 -7.207031 1.90625 -6.59375 C 1.550781 -5.988281 1.375 -5.304688 1.375 -4.546875 C 1.375 -3.796875 1.550781 -3.113281 1.90625 -2.5 C 2.257812 -1.894531 2.742188 -1.414062 3.359375 -1.0625 C 3.984375 -0.71875 4.679688 -0.546875 5.453125 -0.546875 Z M 5.453125 -0.546875 "/></g></g></g><g fill="rgb(0%, 0%, 0%)" fill-opacity="1"><g transform="translate(121.415921, 205.114556)"><g><path d="M 7.90625 0 L 5.734375 -3.046875 C 5.410156 -3.003906 5.113281 -2.984375 4.84375 -2.984375 L 2.25 -2.984375 L 2.25 0 L 1.59375 0 L 1.59375 -9.09375 L 4.84375 -9.09375 C 5.988281 -9.09375 6.882812 -8.820312 7.53125 -8.28125 C 8.1875 -7.738281 8.515625 -6.988281 8.515625 -6.03125 C 8.515625 -5.3125 8.328125 -4.707031 7.953125 -4.21875 C 7.585938 -3.726562 7.066406 -3.382812 6.390625 -3.1875 L 8.65625 0 Z M 4.84375 -3.5625 C 5.820312 -3.5625 6.566406 -3.773438 7.078125 -4.203125 C 7.585938 -4.628906 7.84375 -5.238281 7.84375 -6.03125 C 7.84375 -6.820312 7.585938 -7.429688 7.078125 -7.859375 C 6.566406 -8.285156 5.820312 -8.5 4.84375 -8.5 L 2.25 -8.5 L 2.25 -3.5625 Z M 4.84375 -3.5625 "/></g></g></g><g fill="rgb(0%, 0%, 0%)" fill-opacity="1"><g transform="translate(135.128122, 205.114556)"><g><path d="M 4.84375 -9.09375 C 5.988281 -9.09375 6.882812 -8.820312 7.53125 -8.28125 C 8.1875 -7.738281 8.515625 -6.988281 8.515625 -6.03125 C 8.515625 -5.082031 8.1875 -4.335938 7.53125 -3.796875 C 6.882812 -3.253906 5.988281 -2.984375 4.84375 -2.984375 L 2.25 -2.984375 L 2.25 0 L 1.59375 0 L 1.59375 -9.09375 Z M 4.84375 -3.578125 C 5.820312 -3.578125 6.566406 -3.785156 7.078125 -4.203125 C 7.585938 -4.628906 7.84375 -5.238281 7.84375 -6.03125 C 7.84375 -6.820312 7.585938 -7.429688 7.078125 -7.859375 C 6.566406 -8.285156 5.820312 -8.5 4.84375 -8.5 L 2.25 -8.5 L 2.25 -3.578125 Z M 4.84375 -3.578125 "/></g></g></g><g fill="rgb(0%, 0%, 0%)" fill-opacity="1"><g transform="translate(148.775344, 205.114556)"><g><path d="M 5.453125 0.0625 C 4.554688 0.0625 3.75 -0.132812 3.03125 -0.53125 C 2.3125 -0.9375 1.742188 -1.488281 1.328125 -2.1875 C 0.921875 -2.894531 0.71875 -3.679688 0.71875 -4.546875 C 0.71875 -5.410156 0.921875 -6.191406 1.328125 -6.890625 C 1.742188 -7.597656 2.3125 -8.15625 3.03125 -8.5625 C 3.75 -8.96875 4.554688 -9.171875 5.453125 -9.171875 C 6.335938 -9.171875 7.140625 -8.96875 7.859375 -8.5625 C 8.578125 -8.164062 9.140625 -7.613281 9.546875 -6.90625 C 9.960938 -6.207031 10.171875 -5.421875 10.171875 -4.546875 C 10.171875 -3.671875 9.960938 -2.878906 9.546875 -2.171875 C 9.140625 -1.472656 8.578125 -0.925781 7.859375 -0.53125 C 7.140625 -0.132812 6.335938 0.0625 5.453125 0.0625 Z M 5.453125 -0.546875 C 6.210938 -0.546875 6.898438 -0.71875 7.515625 -1.0625 C 8.128906 -1.414062 8.613281 -1.894531 8.96875 -2.5 C 9.320312 -3.113281 9.5 -3.796875 9.5 -4.546875 C 9.5 -5.304688 9.320312 -5.988281 8.96875 -6.59375 C 8.613281 -7.207031 8.128906 -7.6875 7.515625 -8.03125 C 6.898438 -8.375 6.210938 -8.546875 5.453125 -8.546875 C 4.679688 -8.546875 3.984375 -8.375 3.359375 -8.03125 C 2.742188 -7.6875 2.257812 -7.207031 1.90625 -6.59375 C 1.550781 -5.988281 1.375 -5.304688 1.375 -4.546875 C 1.375 -3.796875 1.550781 -3.113281 1.90625 -2.5 C 2.257812 -1.894531 2.742188 -1.414062 3.359375 -1.0625 C 3.984375 -0.71875 4.679688 -0.546875 5.453125 -0.546875 Z M 5.453125 -0.546875 "/></g></g></g><g fill="rgb(0%, 0%, 0%)" fill-opacity="1"><g transform="translate(164.021076, 205.114556)"><g><path d="M 7.90625 0 L 5.734375 -3.046875 C 5.410156 -3.003906 5.113281 -2.984375 4.84375 -2.984375 L 2.25 -2.984375 L 2.25 0 L 1.59375 0 L 1.59375 -9.09375 L 4.84375 -9.09375 C 5.988281 -9.09375 6.882812 -8.820312 7.53125 -8.28125 C 8.1875 -7.738281 8.515625 -6.988281 8.515625 -6.03125 C 8.515625 -5.3125 8.328125 -4.707031 7.953125 -4.21875 C 7.585938 -3.726562 7.066406 -3.382812 6.390625 -3.1875 L 8.65625 0 Z M 4.84375 -3.5625 C 5.820312 -3.5625 6.566406 -3.773438 7.078125 -4.203125 C 7.585938 -4.628906 7.84375 -5.238281 7.84375 -6.03125 C 7.84375 -6.820312 7.585938 -7.429688 7.078125 -7.859375 C 6.566406 -8.285156 5.820312 -8.5 4.84375 -8.5 L 2.25 -8.5 L 2.25 -3.5625 Z M 4.84375 -3.5625 "/></g></g></g><g fill="rgb(0%, 0%, 0%)" fill-opacity="1"><g transform="translate(177.733277, 205.114556)"><g><path d="M 7.21875 -2.5625 L 1.9375 -2.5625 L 0.78125 0 L 0.0625 0 L 4.25 -9.09375 L 4.90625 -9.09375 L 9.09375 0 L 8.390625 0 Z M 6.96875 -3.125 L 4.578125 -8.375 L 2.203125 -3.125 Z M 6.96875 -3.125 "/></g></g></g><g fill="rgb(0%, 0%, 0%)" fill-opacity="1"><g transform="translate(191.250534, 205.114556)"><g><path d="M 3.328125 -8.5 L 0.046875 -8.5 L 0.046875 -9.09375 L 7.265625 -9.09375 L 7.265625 -8.5 L 3.984375 -8.5 L 3.984375 0 L 3.328125 0 Z M 3.328125 -8.5 "/></g></g></g><g fill="rgb(0%, 0%, 0%)" fill-opacity="1"><g transform="translate(202.922363, 205.114556)"><g><path d="M 1.59375 -9.09375 L 2.25 -9.09375 L 2.25 0 L 1.59375 0 Z M 1.59375 -9.09375 "/></g></g></g><g fill="rgb(0%, 0%, 0%)" fill-opacity="1"><g transform="translate(211.111251, 205.114556)"><g><path d="M 8.859375 -9.09375 L 4.796875 0 L 4.140625 0 L 0.078125 -9.09375 L 0.8125 -9.09375 L 4.484375 -0.859375 L 8.15625 -9.09375 Z M 8.859375 -9.09375 "/></g></g></g><g fill="rgb(0%, 0%, 0%)" fill-opacity="1"><g transform="translate(224.39459, 205.114556)"><g><path d="M 5.453125 0.0625 C 4.554688 0.0625 3.75 -0.132812 3.03125 -0.53125 C 2.3125 -0.9375 1.742188 -1.488281 1.328125 -2.1875 C 0.921875 -2.894531 0.71875 -3.679688 0.71875 -4.546875 C 0.71875 -5.410156 0.921875 -6.191406 1.328125 -6.890625 C 1.742188 -7.597656 2.3125 -8.15625 3.03125 -8.5625 C 3.75 -8.96875 4.554688 -9.171875 5.453125 -9.171875 C 6.335938 -9.171875 7.140625 -8.96875 7.859375 -8.5625 C 8.578125 -8.164062 9.140625 -7.613281 9.546875 -6.90625 C 9.960938 -6.207031 10.171875 -5.421875 10.171875 -4.546875 C 10.171875 -3.671875 9.960938 -2.878906 9.546875 -2.171875 C 9.140625 -1.472656 8.578125 -0.925781 7.859375 -0.53125 C 7.140625 -0.132812 6.335938 0.0625 5.453125 0.0625 Z M 5.453125 -0.546875 C 6.210938 -0.546875 6.898438 -0.71875 7.515625 -1.0625 C 8.128906 -1.414062 8.613281 -1.894531 8.96875 -2.5 C 9.320312 -3.113281 9.5 -3.796875 9.5 -4.546875 C 9.5 -5.304688 9.320312 -5.988281 8.96875 -6.59375 C 8.613281 -7.207031 8.128906 -7.6875 7.515625 -8.03125 C 6.898438 -8.375 6.210938 -8.546875 5.453125 -8.546875 C 4.679688 -8.546875 3.984375 -8.375 3.359375 -8.03125 C 2.742188 -7.6875 2.257812 -7.207031 1.90625 -6.59375 C 1.550781 -5.988281 1.375 -5.304688 1.375 -4.546875 C 1.375 -3.796875 1.550781 -3.113281 1.90625 -2.5 C 2.257812 -1.894531 2.742188 -1.414062 3.359375 -1.0625 C 3.984375 -0.71875 4.679688 -0.546875 5.453125 -0.546875 Z M 5.453125 -0.546875 "/></g></g></g><g fill="rgb(0%, 0%, 0%)" fill-opacity="1"><g transform="translate(239.640317, 205.114556)"><g/></g></g><g fill="rgb(0%, 0%, 0%)" fill-opacity="1"><g transform="translate(247.33537, 205.114556)"><g><path d="M 3.984375 0.0625 C 3.316406 0.0625 2.679688 -0.0507812 2.078125 -0.28125 C 1.472656 -0.507812 1 -0.804688 0.65625 -1.171875 L 0.96875 -1.65625 C 1.28125 -1.320312 1.707031 -1.046875 2.25 -0.828125 C 2.789062 -0.617188 3.363281 -0.515625 3.96875 -0.515625 C 4.832031 -0.515625 5.484375 -0.679688 5.921875 -1.015625 C 6.367188 -1.347656 6.59375 -1.773438 6.59375 -2.296875 C 6.59375 -2.703125 6.472656 -3.023438 6.234375 -3.265625 C 6.003906 -3.515625 5.710938 -3.703125 5.359375 -3.828125 C 5.015625 -3.960938 4.550781 -4.097656 3.96875 -4.234375 C 3.300781 -4.398438 2.765625 -4.5625 2.359375 -4.71875 C 1.953125 -4.875 1.609375 -5.113281 1.328125 -5.4375 C 1.046875 -5.757812 0.90625 -6.195312 0.90625 -6.75 C 0.90625 -7.1875 1.019531 -7.585938 1.25 -7.953125 C 1.488281 -8.328125 1.847656 -8.625 2.328125 -8.84375 C 2.816406 -9.0625 3.421875 -9.171875 4.140625 -9.171875 C 4.640625 -9.171875 5.128906 -9.09375 5.609375 -8.9375 C 6.097656 -8.789062 6.519531 -8.59375 6.875 -8.34375 L 6.625 -7.8125 C 6.257812 -8.0625 5.859375 -8.25 5.421875 -8.375 C 4.984375 -8.507812 4.554688 -8.578125 4.140625 -8.578125 C 3.296875 -8.578125 2.65625 -8.40625 2.21875 -8.0625 C 1.789062 -7.726562 1.578125 -7.296875 1.578125 -6.765625 C 1.578125 -6.359375 1.691406 -6.03125 1.921875 -5.78125 C 2.160156 -5.539062 2.453125 -5.351562 2.796875 -5.21875 C 3.140625 -5.09375 3.613281 -4.957031 4.21875 -4.8125 C 4.882812 -4.644531 5.414062 -4.484375 5.8125 -4.328125 C 6.207031 -4.171875 6.546875 -3.929688 6.828125 -3.609375 C 7.109375 -3.296875 7.25 -2.875 7.25 -2.34375 C 7.25 -1.894531 7.128906 -1.488281 6.890625 -1.125 C 6.648438 -0.757812 6.285156 -0.46875 5.796875 -0.25 C 5.304688 -0.0390625 4.703125 0.0625 3.984375 0.0625 Z M 3.984375 0.0625 "/></g></g></g><g fill="rgb(0%, 0%, 0%)" fill-opacity="1"><g transform="translate(259.605015, 205.114556)"><g><path d="M 7.21875 -2.5625 L 1.9375 -2.5625 L 0.78125 0 L 0.0625 0 L 4.25 -9.09375 L 4.90625 -9.09375 L 9.09375 0 L 8.390625 0 Z M 6.96875 -3.125 L 4.578125 -8.375 L 2.203125 -3.125 Z M 6.96875 -3.125 "/></g></g></g><g fill="rgb(0%, 0%, 0%)" fill-opacity="1"><g transform="translate(273.122271, 205.114556)"><g><path d="M 7.90625 0 L 5.734375 -3.046875 C 5.410156 -3.003906 5.113281 -2.984375 4.84375 -2.984375 L 2.25 -2.984375 L 2.25 0 L 1.59375 0 L 1.59375 -9.09375 L 4.84375 -9.09375 C 5.988281 -9.09375 6.882812 -8.820312 7.53125 -8.28125 C 8.1875 -7.738281 8.515625 -6.988281 8.515625 -6.03125 C 8.515625 -5.3125 8.328125 -4.707031 7.953125 -4.21875 C 7.585938 -3.726562 7.066406 -3.382812 6.390625 -3.1875 L 8.65625 0 Z M 4.84375 -3.5625 C 5.820312 -3.5625 6.566406 -3.773438 7.078125 -4.203125 C 7.585938 -4.628906 7.84375 -5.238281 7.84375 -6.03125 C 7.84375 -6.820312 7.585938 -7.429688 7.078125 -7.859375 C 6.566406 -8.285156 5.820312 -8.5 4.84375 -8.5 L 2.25 -8.5 L 2.25 -3.5625 Z M 4.84375 -3.5625 "/></g></g></g><path stroke-linecap="butt" transform="matrix(0.748052, 0.000000000000000321, -0.000000000000000322, 0.75, 22.457935, 200.614556)" fill="none" stroke-linejoin="miter" d="M -0.00120764 -0.00170024 L 66.18634 -0.00170024 " stroke="rgb(0%, 0%, 0%)" stroke-width="1" stroke-opacity="1" stroke-miterlimit="4"/><path stroke-linecap="butt" transform="matrix(0.748052, 0.000000000000000321, -0.000000000000000322, 0.75, 302.901899, 200.239556)" fill="none" stroke-linejoin="miter" d="M 0.000594532 -0.00170027 L 66.188142 -0.00170027 " stroke="rgb(0%, 0%, 0%)" stroke-width="1" stroke-opacity="1" stroke-miterlimit="4"/></svg>